<mxfile host="app.diagrams.net" modified="2023-08-08T08:00:56.924Z" agent="Mozilla/5.0 (Macintosh; Intel Mac OS X 10_15_7) AppleWebKit/537.36 (KHTML, like Gecko) Chrome/115.0.0.0 Safari/537.36" etag="LCwtYXzx8yIh5OLobIyj" version="21.6.6" type="github">
  <diagram name="페이지-1" id="DwoH7edTf4HsuU-eGd33">
    <mxGraphModel dx="2384" dy="937" grid="1" gridSize="10" guides="1" tooltips="1" connect="1" arrows="1" fold="1" page="1" pageScale="1" pageWidth="827" pageHeight="1169" math="0" shadow="0">
      <root>
        <mxCell id="0" />
        <mxCell id="1" parent="0" />
        <mxCell id="4FLvGC25ykMLNMkPPXXy-10" value="" style="rounded=0;whiteSpace=wrap;html=1;fillColor=#D5E8D4;" vertex="1" parent="1">
          <mxGeometry x="760" y="389" width="290" height="341" as="geometry" />
        </mxCell>
        <mxCell id="4FLvGC25ykMLNMkPPXXy-6" value="" style="rounded=0;whiteSpace=wrap;html=1;fillColor=#D5E8D4;" vertex="1" parent="1">
          <mxGeometry x="10" y="1169" width="680" height="830" as="geometry" />
        </mxCell>
        <mxCell id="4FLvGC25ykMLNMkPPXXy-2" value="" style="whiteSpace=wrap;html=1;aspect=fixed;fillColor=#D5E8D4;" vertex="1" parent="1">
          <mxGeometry x="10" y="390" width="680" height="680" as="geometry" />
        </mxCell>
        <mxCell id="8_uEdGlW4i0jT_Yr1RCu-56" style="rounded=0;orthogonalLoop=1;jettySize=auto;html=1;exitX=1;exitY=0.3333333333333333;exitDx=0;exitDy=0;exitPerimeter=0;entryX=0;entryY=0.5;entryDx=0;entryDy=0;endArrow=none;endFill=0;" parent="1" source="8_uEdGlW4i0jT_Yr1RCu-2" target="8_uEdGlW4i0jT_Yr1RCu-4" edge="1">
          <mxGeometry relative="1" as="geometry" />
        </mxCell>
        <mxCell id="8_uEdGlW4i0jT_Yr1RCu-57" style="rounded=0;orthogonalLoop=1;jettySize=auto;html=1;exitX=1;exitY=0.3333333333333333;exitDx=0;exitDy=0;exitPerimeter=0;entryX=0;entryY=0.5;entryDx=0;entryDy=0;endArrow=none;endFill=0;" parent="1" source="8_uEdGlW4i0jT_Yr1RCu-2" target="8_uEdGlW4i0jT_Yr1RCu-12" edge="1">
          <mxGeometry relative="1" as="geometry" />
        </mxCell>
        <mxCell id="8_uEdGlW4i0jT_Yr1RCu-58" style="rounded=0;orthogonalLoop=1;jettySize=auto;html=1;exitX=1;exitY=0.3333333333333333;exitDx=0;exitDy=0;exitPerimeter=0;entryX=0;entryY=0.5;entryDx=0;entryDy=0;endArrow=none;endFill=0;" parent="1" source="8_uEdGlW4i0jT_Yr1RCu-2" target="8_uEdGlW4i0jT_Yr1RCu-5" edge="1">
          <mxGeometry relative="1" as="geometry" />
        </mxCell>
        <mxCell id="8_uEdGlW4i0jT_Yr1RCu-59" style="rounded=0;orthogonalLoop=1;jettySize=auto;html=1;exitX=1;exitY=0.3333333333333333;exitDx=0;exitDy=0;exitPerimeter=0;entryX=0;entryY=0.5;entryDx=0;entryDy=0;endArrow=none;endFill=0;" parent="1" source="8_uEdGlW4i0jT_Yr1RCu-2" target="8_uEdGlW4i0jT_Yr1RCu-6" edge="1">
          <mxGeometry relative="1" as="geometry" />
        </mxCell>
        <mxCell id="8_uEdGlW4i0jT_Yr1RCu-60" style="rounded=0;orthogonalLoop=1;jettySize=auto;html=1;exitX=1;exitY=0.3333333333333333;exitDx=0;exitDy=0;exitPerimeter=0;entryX=0;entryY=0.5;entryDx=0;entryDy=0;endArrow=none;endFill=0;" parent="1" source="8_uEdGlW4i0jT_Yr1RCu-2" target="8_uEdGlW4i0jT_Yr1RCu-7" edge="1">
          <mxGeometry relative="1" as="geometry" />
        </mxCell>
        <mxCell id="8_uEdGlW4i0jT_Yr1RCu-61" style="rounded=0;orthogonalLoop=1;jettySize=auto;html=1;exitX=1;exitY=0.3333333333333333;exitDx=0;exitDy=0;exitPerimeter=0;entryX=0;entryY=0.5;entryDx=0;entryDy=0;endArrow=none;endFill=0;" parent="1" source="8_uEdGlW4i0jT_Yr1RCu-2" target="8_uEdGlW4i0jT_Yr1RCu-8" edge="1">
          <mxGeometry relative="1" as="geometry" />
        </mxCell>
        <mxCell id="8_uEdGlW4i0jT_Yr1RCu-62" style="rounded=0;orthogonalLoop=1;jettySize=auto;html=1;exitX=1;exitY=0.3333333333333333;exitDx=0;exitDy=0;exitPerimeter=0;entryX=0;entryY=0.5;entryDx=0;entryDy=0;endArrow=none;endFill=0;" parent="1" source="8_uEdGlW4i0jT_Yr1RCu-2" target="8_uEdGlW4i0jT_Yr1RCu-9" edge="1">
          <mxGeometry relative="1" as="geometry" />
        </mxCell>
        <mxCell id="8_uEdGlW4i0jT_Yr1RCu-63" style="rounded=0;orthogonalLoop=1;jettySize=auto;html=1;exitX=1;exitY=0.3333333333333333;exitDx=0;exitDy=0;exitPerimeter=0;entryX=0;entryY=0.5;entryDx=0;entryDy=0;endArrow=none;endFill=0;" parent="1" source="8_uEdGlW4i0jT_Yr1RCu-2" target="8_uEdGlW4i0jT_Yr1RCu-10" edge="1">
          <mxGeometry relative="1" as="geometry" />
        </mxCell>
        <mxCell id="8_uEdGlW4i0jT_Yr1RCu-64" style="rounded=0;orthogonalLoop=1;jettySize=auto;html=1;exitX=1;exitY=0.3333333333333333;exitDx=0;exitDy=0;exitPerimeter=0;entryX=0;entryY=0.5;entryDx=0;entryDy=0;endArrow=none;endFill=0;" parent="1" source="8_uEdGlW4i0jT_Yr1RCu-2" target="8_uEdGlW4i0jT_Yr1RCu-42" edge="1">
          <mxGeometry relative="1" as="geometry" />
        </mxCell>
        <mxCell id="8_uEdGlW4i0jT_Yr1RCu-65" style="rounded=0;orthogonalLoop=1;jettySize=auto;html=1;exitX=1;exitY=0.3333333333333333;exitDx=0;exitDy=0;exitPerimeter=0;entryX=0;entryY=0.5;entryDx=0;entryDy=0;endArrow=none;endFill=0;" parent="1" source="8_uEdGlW4i0jT_Yr1RCu-2" target="8_uEdGlW4i0jT_Yr1RCu-18" edge="1">
          <mxGeometry relative="1" as="geometry" />
        </mxCell>
        <mxCell id="8_uEdGlW4i0jT_Yr1RCu-66" style="rounded=0;orthogonalLoop=1;jettySize=auto;html=1;exitX=1;exitY=0.3333333333333333;exitDx=0;exitDy=0;exitPerimeter=0;entryX=0;entryY=0.5;entryDx=0;entryDy=0;endArrow=none;endFill=0;" parent="1" source="8_uEdGlW4i0jT_Yr1RCu-2" target="8_uEdGlW4i0jT_Yr1RCu-31" edge="1">
          <mxGeometry relative="1" as="geometry" />
        </mxCell>
        <mxCell id="8_uEdGlW4i0jT_Yr1RCu-67" style="rounded=0;orthogonalLoop=1;jettySize=auto;html=1;exitX=1;exitY=0.3333333333333333;exitDx=0;exitDy=0;exitPerimeter=0;entryX=0;entryY=0.5;entryDx=0;entryDy=0;endArrow=none;endFill=0;" parent="1" source="8_uEdGlW4i0jT_Yr1RCu-2" target="8_uEdGlW4i0jT_Yr1RCu-32" edge="1">
          <mxGeometry relative="1" as="geometry" />
        </mxCell>
        <mxCell id="8_uEdGlW4i0jT_Yr1RCu-2" value="User" style="shape=umlActor;verticalLabelPosition=bottom;verticalAlign=top;html=1;outlineConnect=0;" parent="1" vertex="1">
          <mxGeometry x="-320" y="1130" width="30" height="60" as="geometry" />
        </mxCell>
        <mxCell id="8_uEdGlW4i0jT_Yr1RCu-4" value="학과 검색" style="ellipse;whiteSpace=wrap;html=1;" parent="1" vertex="1">
          <mxGeometry x="190" y="1769" width="120" height="70" as="geometry" />
        </mxCell>
        <mxCell id="8_uEdGlW4i0jT_Yr1RCu-27" value="include" style="edgeStyle=orthogonalEdgeStyle;rounded=0;orthogonalLoop=1;jettySize=auto;html=1;exitX=1;exitY=0.5;exitDx=0;exitDy=0;entryX=0;entryY=0.5;entryDx=0;entryDy=0;dashed=1;" parent="1" source="8_uEdGlW4i0jT_Yr1RCu-5" target="8_uEdGlW4i0jT_Yr1RCu-26" edge="1">
          <mxGeometry relative="1" as="geometry" />
        </mxCell>
        <mxCell id="8_uEdGlW4i0jT_Yr1RCu-29" value="exclude" style="rounded=0;orthogonalLoop=1;jettySize=auto;html=1;entryX=1;entryY=0.5;entryDx=0;entryDy=0;dashed=1;exitX=0;exitY=0.5;exitDx=0;exitDy=0;" parent="1" source="8_uEdGlW4i0jT_Yr1RCu-28" target="8_uEdGlW4i0jT_Yr1RCu-5" edge="1">
          <mxGeometry relative="1" as="geometry">
            <mxPoint x="373.5" y="580" as="sourcePoint" />
            <mxPoint x="309.5" y="510" as="targetPoint" />
          </mxGeometry>
        </mxCell>
        <mxCell id="8_uEdGlW4i0jT_Yr1RCu-5" value="로그인" style="ellipse;whiteSpace=wrap;html=1;" parent="1" vertex="1">
          <mxGeometry x="190" y="440" width="120" height="70" as="geometry" />
        </mxCell>
        <mxCell id="8_uEdGlW4i0jT_Yr1RCu-6" value="로그아웃" style="ellipse;whiteSpace=wrap;html=1;" parent="1" vertex="1">
          <mxGeometry x="190" y="530" width="120" height="70" as="geometry" />
        </mxCell>
        <mxCell id="8_uEdGlW4i0jT_Yr1RCu-7" value="아이디 찾기" style="ellipse;whiteSpace=wrap;html=1;" parent="1" vertex="1">
          <mxGeometry x="190" y="620" width="120" height="70" as="geometry" />
        </mxCell>
        <mxCell id="8_uEdGlW4i0jT_Yr1RCu-8" value="비밀번호 찾기" style="ellipse;whiteSpace=wrap;html=1;" parent="1" vertex="1">
          <mxGeometry x="190" y="710" width="120" height="70" as="geometry" />
        </mxCell>
        <mxCell id="8_uEdGlW4i0jT_Yr1RCu-9" value="개인정보 수정" style="ellipse;whiteSpace=wrap;html=1;" parent="1" vertex="1">
          <mxGeometry x="190" y="800" width="120" height="70" as="geometry" />
        </mxCell>
        <mxCell id="8_uEdGlW4i0jT_Yr1RCu-15" style="edgeStyle=orthogonalEdgeStyle;rounded=0;orthogonalLoop=1;jettySize=auto;html=1;exitX=1;exitY=0.5;exitDx=0;exitDy=0;dashed=1;" parent="1" source="8_uEdGlW4i0jT_Yr1RCu-10" edge="1">
          <mxGeometry relative="1" as="geometry">
            <mxPoint x="376" y="925" as="targetPoint" />
          </mxGeometry>
        </mxCell>
        <mxCell id="8_uEdGlW4i0jT_Yr1RCu-16" value="include" style="edgeLabel;html=1;align=center;verticalAlign=middle;resizable=0;points=[];" parent="8_uEdGlW4i0jT_Yr1RCu-15" vertex="1" connectable="0">
          <mxGeometry x="0.1111" y="-1" relative="1" as="geometry">
            <mxPoint x="-7" y="-16" as="offset" />
          </mxGeometry>
        </mxCell>
        <mxCell id="8_uEdGlW4i0jT_Yr1RCu-69" style="rounded=0;orthogonalLoop=1;jettySize=auto;html=1;exitX=1;exitY=0.5;exitDx=0;exitDy=0;entryX=0;entryY=0.5;entryDx=0;entryDy=0;dashed=1;" parent="1" source="8_uEdGlW4i0jT_Yr1RCu-10" target="8_uEdGlW4i0jT_Yr1RCu-68" edge="1">
          <mxGeometry relative="1" as="geometry" />
        </mxCell>
        <mxCell id="8_uEdGlW4i0jT_Yr1RCu-70" value="include" style="edgeLabel;html=1;align=center;verticalAlign=middle;resizable=0;points=[];" parent="8_uEdGlW4i0jT_Yr1RCu-69" vertex="1" connectable="0">
          <mxGeometry x="-0.045" y="-2" relative="1" as="geometry">
            <mxPoint as="offset" />
          </mxGeometry>
        </mxCell>
        <mxCell id="8_uEdGlW4i0jT_Yr1RCu-10" value="회원가입" style="ellipse;whiteSpace=wrap;html=1;" parent="1" vertex="1">
          <mxGeometry x="190" y="890" width="120" height="70" as="geometry" />
        </mxCell>
        <mxCell id="8_uEdGlW4i0jT_Yr1RCu-11" value="아이디 중복체크" style="ellipse;whiteSpace=wrap;html=1;" parent="1" vertex="1">
          <mxGeometry x="376" y="890" width="120" height="70" as="geometry" />
        </mxCell>
        <mxCell id="8_uEdGlW4i0jT_Yr1RCu-12" value="강의 검색" style="ellipse;whiteSpace=wrap;html=1;" parent="1" vertex="1">
          <mxGeometry x="190" y="1859" width="120" height="70" as="geometry" />
        </mxCell>
        <mxCell id="8_uEdGlW4i0jT_Yr1RCu-13" value="교수명 검색" style="ellipse;whiteSpace=wrap;html=1;" parent="1" vertex="1">
          <mxGeometry x="190" y="1679" width="120" height="70" as="geometry" />
        </mxCell>
        <mxCell id="8_uEdGlW4i0jT_Yr1RCu-23" style="rounded=0;orthogonalLoop=1;jettySize=auto;html=1;exitX=0;exitY=0.5;exitDx=0;exitDy=0;dashed=1;entryX=1;entryY=0.5;entryDx=0;entryDy=0;" parent="1" source="8_uEdGlW4i0jT_Yr1RCu-22" target="8_uEdGlW4i0jT_Yr1RCu-18" edge="1">
          <mxGeometry relative="1" as="geometry">
            <mxPoint x="90" y="1434" as="targetPoint" />
          </mxGeometry>
        </mxCell>
        <mxCell id="8_uEdGlW4i0jT_Yr1RCu-25" value="include" style="edgeLabel;html=1;align=center;verticalAlign=middle;resizable=0;points=[];" parent="8_uEdGlW4i0jT_Yr1RCu-23" vertex="1" connectable="0">
          <mxGeometry x="0.5935" relative="1" as="geometry">
            <mxPoint x="9" y="4" as="offset" />
          </mxGeometry>
        </mxCell>
        <mxCell id="8_uEdGlW4i0jT_Yr1RCu-38" style="rounded=0;orthogonalLoop=1;jettySize=auto;html=1;dashed=1;dashPattern=1 1;entryX=1;entryY=0.5;entryDx=0;entryDy=0;exitX=0;exitY=0.5;exitDx=0;exitDy=0;" parent="1" source="8_uEdGlW4i0jT_Yr1RCu-19" target="8_uEdGlW4i0jT_Yr1RCu-18" edge="1">
          <mxGeometry relative="1" as="geometry">
            <mxPoint x="330" y="1294" as="targetPoint" />
            <mxPoint x="440" y="1304" as="sourcePoint" />
          </mxGeometry>
        </mxCell>
        <mxCell id="8_uEdGlW4i0jT_Yr1RCu-39" value="include" style="edgeLabel;html=1;align=center;verticalAlign=middle;resizable=0;points=[];" parent="8_uEdGlW4i0jT_Yr1RCu-38" vertex="1" connectable="0">
          <mxGeometry x="0.1271" y="1" relative="1" as="geometry">
            <mxPoint x="53" as="offset" />
          </mxGeometry>
        </mxCell>
        <mxCell id="8_uEdGlW4i0jT_Yr1RCu-50" style="rounded=0;orthogonalLoop=1;jettySize=auto;html=1;exitX=1;exitY=0.5;exitDx=0;exitDy=0;entryX=0;entryY=0.5;entryDx=0;entryDy=0;dashed=1;dashPattern=12 12;" parent="1" source="8_uEdGlW4i0jT_Yr1RCu-18" target="8_uEdGlW4i0jT_Yr1RCu-47" edge="1">
          <mxGeometry relative="1" as="geometry" />
        </mxCell>
        <mxCell id="8_uEdGlW4i0jT_Yr1RCu-51" value="include" style="edgeLabel;html=1;align=center;verticalAlign=middle;resizable=0;points=[];" parent="8_uEdGlW4i0jT_Yr1RCu-50" vertex="1" connectable="0">
          <mxGeometry x="0.6136" y="-3" relative="1" as="geometry">
            <mxPoint y="1" as="offset" />
          </mxGeometry>
        </mxCell>
        <mxCell id="8_uEdGlW4i0jT_Yr1RCu-53" style="rounded=0;orthogonalLoop=1;jettySize=auto;html=1;exitX=1;exitY=0.5;exitDx=0;exitDy=0;entryX=0;entryY=0.5;entryDx=0;entryDy=0;dashed=1;dashPattern=12 12;" parent="1" source="8_uEdGlW4i0jT_Yr1RCu-18" target="8_uEdGlW4i0jT_Yr1RCu-52" edge="1">
          <mxGeometry relative="1" as="geometry" />
        </mxCell>
        <mxCell id="8_uEdGlW4i0jT_Yr1RCu-54" value="include" style="edgeLabel;html=1;align=center;verticalAlign=middle;resizable=0;points=[];" parent="8_uEdGlW4i0jT_Yr1RCu-53" vertex="1" connectable="0">
          <mxGeometry x="0.4998" y="-2" relative="1" as="geometry">
            <mxPoint as="offset" />
          </mxGeometry>
        </mxCell>
        <mxCell id="8_uEdGlW4i0jT_Yr1RCu-18" value="리뷰 작성" style="ellipse;whiteSpace=wrap;html=1;" parent="1" vertex="1">
          <mxGeometry x="190" y="1294" width="120" height="70" as="geometry" />
        </mxCell>
        <mxCell id="8_uEdGlW4i0jT_Yr1RCu-19" value="타임라인 게시" style="ellipse;whiteSpace=wrap;html=1;" parent="1" vertex="1">
          <mxGeometry x="510" y="1299" width="120" height="70" as="geometry" />
        </mxCell>
        <mxCell id="8_uEdGlW4i0jT_Yr1RCu-22" value="별점 평균 업데이트" style="ellipse;whiteSpace=wrap;html=1;" parent="1" vertex="1">
          <mxGeometry x="510" y="1399" width="120" height="70" as="geometry" />
        </mxCell>
        <mxCell id="8_uEdGlW4i0jT_Yr1RCu-26" value="인증" style="ellipse;whiteSpace=wrap;html=1;" parent="1" vertex="1">
          <mxGeometry x="376" y="440" width="120" height="70" as="geometry" />
        </mxCell>
        <mxCell id="8_uEdGlW4i0jT_Yr1RCu-28" value="로그인 실패" style="ellipse;whiteSpace=wrap;html=1;" parent="1" vertex="1">
          <mxGeometry x="376" y="530" width="120" height="70" as="geometry" />
        </mxCell>
        <mxCell id="8_uEdGlW4i0jT_Yr1RCu-33" style="rounded=0;orthogonalLoop=1;jettySize=auto;html=1;dashed=1;entryX=1;entryY=0.5;entryDx=0;entryDy=0;exitX=0;exitY=0.5;exitDx=0;exitDy=0;" parent="1" source="8_uEdGlW4i0jT_Yr1RCu-22" target="8_uEdGlW4i0jT_Yr1RCu-31" edge="1">
          <mxGeometry relative="1" as="geometry">
            <mxPoint x="510" y="1564" as="sourcePoint" />
          </mxGeometry>
        </mxCell>
        <mxCell id="8_uEdGlW4i0jT_Yr1RCu-35" value="include" style="edgeLabel;html=1;align=center;verticalAlign=middle;resizable=0;points=[];" parent="8_uEdGlW4i0jT_Yr1RCu-33" vertex="1" connectable="0">
          <mxGeometry x="-0.1111" y="1" relative="1" as="geometry">
            <mxPoint x="51" y="-71" as="offset" />
          </mxGeometry>
        </mxCell>
        <mxCell id="8_uEdGlW4i0jT_Yr1RCu-37" style="rounded=0;orthogonalLoop=1;jettySize=auto;html=1;dashed=1;dashPattern=1 1;entryX=1;entryY=0.5;entryDx=0;entryDy=0;exitX=0;exitY=0.5;exitDx=0;exitDy=0;" parent="1" source="8_uEdGlW4i0jT_Yr1RCu-19" target="8_uEdGlW4i0jT_Yr1RCu-31" edge="1">
          <mxGeometry relative="1" as="geometry">
            <mxPoint x="330" y="1384" as="targetPoint" />
            <mxPoint x="420" y="1344" as="sourcePoint" />
          </mxGeometry>
        </mxCell>
        <mxCell id="8_uEdGlW4i0jT_Yr1RCu-40" value="include" style="edgeLabel;html=1;align=center;verticalAlign=middle;resizable=0;points=[];" parent="8_uEdGlW4i0jT_Yr1RCu-37" vertex="1" connectable="0">
          <mxGeometry x="0.523" y="-3" relative="1" as="geometry">
            <mxPoint x="3" y="23" as="offset" />
          </mxGeometry>
        </mxCell>
        <mxCell id="8_uEdGlW4i0jT_Yr1RCu-31" value="본인 리뷰 수정" style="ellipse;whiteSpace=wrap;html=1;" parent="1" vertex="1">
          <mxGeometry x="190" y="1384" width="120" height="70" as="geometry" />
        </mxCell>
        <mxCell id="8_uEdGlW4i0jT_Yr1RCu-34" value="include" style="rounded=0;orthogonalLoop=1;jettySize=auto;html=1;entryX=1;entryY=0.5;entryDx=0;entryDy=0;dashed=1;exitX=0;exitY=0.5;exitDx=0;exitDy=0;" parent="1" source="8_uEdGlW4i0jT_Yr1RCu-22" target="8_uEdGlW4i0jT_Yr1RCu-32" edge="1">
          <mxGeometry x="0.4247" y="7" relative="1" as="geometry">
            <mxPoint x="530" y="1524" as="sourcePoint" />
            <mxPoint x="400" y="1419" as="targetPoint" />
            <mxPoint as="offset" />
          </mxGeometry>
        </mxCell>
        <mxCell id="8_uEdGlW4i0jT_Yr1RCu-36" style="rounded=0;orthogonalLoop=1;jettySize=auto;html=1;exitX=0;exitY=0.5;exitDx=0;exitDy=0;dashed=1;dashPattern=1 1;entryX=1;entryY=0.5;entryDx=0;entryDy=0;" parent="1" source="8_uEdGlW4i0jT_Yr1RCu-19" target="8_uEdGlW4i0jT_Yr1RCu-32" edge="1">
          <mxGeometry relative="1" as="geometry">
            <mxPoint x="360" y="1604" as="targetPoint" />
          </mxGeometry>
        </mxCell>
        <mxCell id="8_uEdGlW4i0jT_Yr1RCu-41" value="include" style="edgeLabel;html=1;align=center;verticalAlign=middle;resizable=0;points=[];" parent="8_uEdGlW4i0jT_Yr1RCu-36" vertex="1" connectable="0">
          <mxGeometry x="0.6021" y="-4" relative="1" as="geometry">
            <mxPoint x="123" y="-102" as="offset" />
          </mxGeometry>
        </mxCell>
        <mxCell id="8_uEdGlW4i0jT_Yr1RCu-32" value="본인 리뷰 삭제" style="ellipse;whiteSpace=wrap;html=1;" parent="1" vertex="1">
          <mxGeometry x="190" y="1474" width="120" height="70" as="geometry" />
        </mxCell>
        <mxCell id="8_uEdGlW4i0jT_Yr1RCu-43" style="rounded=0;orthogonalLoop=1;jettySize=auto;html=1;dashed=1;dashPattern=1 1;entryX=1;entryY=0.5;entryDx=0;entryDy=0;exitX=0;exitY=0.5;exitDx=0;exitDy=0;" parent="1" source="8_uEdGlW4i0jT_Yr1RCu-19" target="8_uEdGlW4i0jT_Yr1RCu-42" edge="1">
          <mxGeometry relative="1" as="geometry">
            <mxPoint x="470" y="1284" as="sourcePoint" />
            <mxPoint x="330" y="1284" as="targetPoint" />
          </mxGeometry>
        </mxCell>
        <mxCell id="8_uEdGlW4i0jT_Yr1RCu-44" value="include" style="edgeLabel;html=1;align=center;verticalAlign=middle;resizable=0;points=[];" parent="8_uEdGlW4i0jT_Yr1RCu-43" vertex="1" connectable="0">
          <mxGeometry x="0.2059" y="2" relative="1" as="geometry">
            <mxPoint x="81" y="26" as="offset" />
          </mxGeometry>
        </mxCell>
        <mxCell id="8_uEdGlW4i0jT_Yr1RCu-42" value="리뷰 좋아요 버튼 클릭" style="ellipse;whiteSpace=wrap;html=1;" parent="1" vertex="1">
          <mxGeometry x="190" y="1204" width="120" height="70" as="geometry" />
        </mxCell>
        <mxCell id="8_uEdGlW4i0jT_Yr1RCu-45" value="A include B : A라는 결과가 진행되는 과정에서 B가 반드시 필요 (A --&amp;gt; B)" style="text;html=1;align=center;verticalAlign=middle;resizable=0;points=[];autosize=1;strokeColor=none;fillColor=none;" parent="1" vertex="1">
          <mxGeometry x="50" width="370" height="30" as="geometry" />
        </mxCell>
        <mxCell id="8_uEdGlW4i0jT_Yr1RCu-46" value="B extend A : A라는 결과가 진행되는 과정에서 B가 선택지로 등장 (B --&amp;gt; A)" style="text;html=1;align=center;verticalAlign=middle;resizable=0;points=[];autosize=1;strokeColor=none;fillColor=none;" parent="1" vertex="1">
          <mxGeometry x="50" y="30" width="380" height="30" as="geometry" />
        </mxCell>
        <mxCell id="8_uEdGlW4i0jT_Yr1RCu-47" value="별점 선택" style="ellipse;whiteSpace=wrap;html=1;" parent="1" vertex="1">
          <mxGeometry x="510" y="1504" width="120" height="70" as="geometry" />
        </mxCell>
        <mxCell id="8_uEdGlW4i0jT_Yr1RCu-52" value="강의 정보 선택&lt;br&gt;(학과,강의명, 교수명 등)" style="ellipse;whiteSpace=wrap;html=1;" parent="1" vertex="1">
          <mxGeometry x="510" y="1614" width="120" height="70" as="geometry" />
        </mxCell>
        <mxCell id="8_uEdGlW4i0jT_Yr1RCu-68" value="학교 이메일 인증" style="ellipse;whiteSpace=wrap;html=1;" parent="1" vertex="1">
          <mxGeometry x="376" y="980" width="120" height="70" as="geometry" />
        </mxCell>
        <mxCell id="8_uEdGlW4i0jT_Yr1RCu-75" style="rounded=0;orthogonalLoop=1;jettySize=auto;html=1;exitX=0;exitY=0.3333333333333333;exitDx=0;exitDy=0;exitPerimeter=0;entryX=1;entryY=0.5;entryDx=0;entryDy=0;endArrow=none;endFill=0;" parent="1" source="8_uEdGlW4i0jT_Yr1RCu-71" target="8_uEdGlW4i0jT_Yr1RCu-73" edge="1">
          <mxGeometry relative="1" as="geometry" />
        </mxCell>
        <mxCell id="8_uEdGlW4i0jT_Yr1RCu-76" style="rounded=0;orthogonalLoop=1;jettySize=auto;html=1;exitX=0;exitY=0.3333333333333333;exitDx=0;exitDy=0;exitPerimeter=0;entryX=1;entryY=0.5;entryDx=0;entryDy=0;endArrow=none;endFill=0;" parent="1" source="8_uEdGlW4i0jT_Yr1RCu-71" target="8_uEdGlW4i0jT_Yr1RCu-74" edge="1">
          <mxGeometry relative="1" as="geometry" />
        </mxCell>
        <mxCell id="8_uEdGlW4i0jT_Yr1RCu-71" value="administrator" style="shape=umlActor;verticalLabelPosition=bottom;verticalAlign=top;html=1;outlineConnect=0;" parent="1" vertex="1">
          <mxGeometry x="1130" y="538" width="30" height="60" as="geometry" />
        </mxCell>
        <mxCell id="8_uEdGlW4i0jT_Yr1RCu-73" value="리뷰 삭제" style="ellipse;whiteSpace=wrap;html=1;" parent="1" vertex="1">
          <mxGeometry x="850" y="478" width="120" height="70" as="geometry" />
        </mxCell>
        <mxCell id="8_uEdGlW4i0jT_Yr1RCu-74" value="학과별 이용통계 확인" style="ellipse;whiteSpace=wrap;html=1;" parent="1" vertex="1">
          <mxGeometry x="850" y="588" width="120" height="70" as="geometry" />
        </mxCell>
        <mxCell id="4FLvGC25ykMLNMkPPXXy-3" value="&lt;font size=&quot;3&quot;&gt;계정 시스템&lt;/font&gt;" style="rounded=1;whiteSpace=wrap;html=1;" vertex="1" parent="1">
          <mxGeometry x="10" y="340" width="170" height="40" as="geometry" />
        </mxCell>
        <mxCell id="4FLvGC25ykMLNMkPPXXy-7" value="" style="rounded=0;orthogonalLoop=1;jettySize=auto;html=1;exitX=1;exitY=0.3333333333333333;exitDx=0;exitDy=0;exitPerimeter=0;entryX=0;entryY=0.5;entryDx=0;entryDy=0;endArrow=none;endFill=0;" edge="1" parent="1" source="8_uEdGlW4i0jT_Yr1RCu-2" target="4FLvGC25ykMLNMkPPXXy-6">
          <mxGeometry relative="1" as="geometry">
            <mxPoint x="-300" y="1105" as="sourcePoint" />
            <mxPoint x="190" y="1655" as="targetPoint" />
          </mxGeometry>
        </mxCell>
        <mxCell id="4FLvGC25ykMLNMkPPXXy-8" value="&lt;font size=&quot;3&quot;&gt;리뷰 시스템&lt;/font&gt;" style="rounded=1;whiteSpace=wrap;html=1;" vertex="1" parent="1">
          <mxGeometry x="10" y="1120" width="170" height="40" as="geometry" />
        </mxCell>
        <mxCell id="4FLvGC25ykMLNMkPPXXy-11" value="&lt;font size=&quot;3&quot;&gt;관리자 시스템&lt;/font&gt;" style="rounded=1;whiteSpace=wrap;html=1;" vertex="1" parent="1">
          <mxGeometry x="760" y="340" width="170" height="40" as="geometry" />
        </mxCell>
      </root>
    </mxGraphModel>
  </diagram>
</mxfile>
